<svg aria-hidden="true" style="position: absolute; width: 0; height: 0; overflow: hidden;" version="1.1" xmlns="http://www.w3.org/2000/svg" xmlns:xlink="http://www.w3.org/1999/xlink">
<defs>
<symbol id="icon-book-open" viewBox="0 0 42 32">
<title>book-open</title>
<path d="M37.5 1h-16c-0.397 0-0.74 0.136-1 0.362-0.26-0.226-0.603-0.362-1-0.362h-16c-0.869 0-1.5 0.631-1.5 1.5v28c0 0.869 0.631 1.5 1.5 1.5h16c0.397 0 0.74-0.136 1-0.362 0.26 0.226 0.603 0.362 1 0.362h16c0.869 0 1.5-0.631 1.5-1.5v-28c0-0.869-0.631-1.5-1.5-1.5zM19.5 31h-16c-0.313 0-0.5-0.187-0.5-0.5v-28c0-0.313 0.187-0.5 0.5-0.5h16c0.313 0 0.5 0.187 0.5 0.5v28c0 0.313-0.187 0.5-0.5 0.5zM38 30.5c0 0.313-0.187 0.5-0.5 0.5h-16c-0.313 0-0.5-0.187-0.5-0.5v-28c0-0.313 0.187-0.5 0.5-0.5h16c0.313 0 0.5 0.187 0.5 0.5v28zM40.5 3c-0.276 0-0.5 0.224-0.5 0.5v26c0 0.276 0.224 0.5 0.5 0.5s0.5-0.224 0.5-0.5v-26c0-0.276-0.224-0.5-0.5-0.5zM0.5 30c0.276 0 0.5-0.224 0.5-0.5v-26c0-0.276-0.224-0.5-0.5-0.5s-0.5 0.224-0.5 0.5v26c0 0.276 0.224 0.5 0.5 0.5zM17.5 10h-12c-0.276 0-0.5 0.224-0.5 0.5s0.224 0.5 0.5 0.5h12c0.276 0 0.5-0.224 0.5-0.5s-0.224-0.5-0.5-0.5zM17.5 14h-12c-0.276 0-0.5 0.224-0.5 0.5s0.224 0.5 0.5 0.5h12c0.276 0 0.5-0.224 0.5-0.5s-0.224-0.5-0.5-0.5zM17.5 6h-12c-0.276 0-0.5 0.224-0.5 0.5s0.224 0.5 0.5 0.5h12c0.276 0 0.5-0.224 0.5-0.5s-0.224-0.5-0.5-0.5zM17.5 18h-12c-0.276 0-0.5 0.224-0.5 0.5s0.224 0.5 0.5 0.5h12c0.276 0 0.5-0.224 0.5-0.5s-0.224-0.5-0.5-0.5zM17.5 22h-12c-0.276 0-0.5 0.224-0.5 0.5s0.224 0.5 0.5 0.5h12c0.276 0 0.5-0.224 0.5-0.5s-0.224-0.5-0.5-0.5zM17.5 26h-12c-0.276 0-0.5 0.224-0.5 0.5s0.224 0.5 0.5 0.5h12c0.276 0 0.5-0.224 0.5-0.5s-0.224-0.5-0.5-0.5zM35.5 10h-12c-0.276 0-0.5 0.224-0.5 0.5s0.224 0.5 0.5 0.5h12c0.276 0 0.5-0.224 0.5-0.5s-0.224-0.5-0.5-0.5zM35.5 14h-12c-0.276 0-0.5 0.224-0.5 0.5s0.224 0.5 0.5 0.5h12c0.276 0 0.5-0.224 0.5-0.5s-0.224-0.5-0.5-0.5zM35.5 6h-12c-0.276 0-0.5 0.224-0.5 0.5s0.224 0.5 0.5 0.5h12c0.276 0 0.5-0.224 0.5-0.5s-0.224-0.5-0.5-0.5zM35.5 18h-12c-0.276 0-0.5 0.224-0.5 0.5s0.224 0.5 0.5 0.5h12c0.276 0 0.5-0.224 0.5-0.5s-0.224-0.5-0.5-0.5zM35.5 22h-12c-0.276 0-0.5 0.224-0.5 0.5s0.224 0.5 0.5 0.5h12c0.276 0 0.5-0.224 0.5-0.5s-0.224-0.5-0.5-0.5zM35.5 26h-12c-0.276 0-0.5 0.224-0.5 0.5s0.224 0.5 0.5 0.5h12c0.276 0 0.5-0.224 0.5-0.5s-0.224-0.5-0.5-0.5z"></path>
</symbol>
<symbol id="icon-envelope" viewBox="0 0 38 32">
<title>envelope</title>
<path d="M20.060 0.413c-0.58-0.533-1.539-0.533-2.119 0l-17.688 10.671c-0.15 0.091-0.242 0.253-0.242 0.428v18.922c0 0.863 0.706 1.566 1.574 1.566h34.83c0.868 0 1.574-0.703 1.574-1.566v-18.922c0-0.175-0.092-0.337-0.242-0.428l-17.687-10.671zM18.504 1.24c0.035-0.021 0.066-0.046 0.095-0.074 0.108-0.107 0.25-0.166 0.401-0.166s0.293 0.059 0.4 0.166c0.029 0.028 0.061 0.053 0.095 0.074l17.227 10.394-12.478 7.436c-0.237 0.142-0.315 0.448-0.174 0.686 0.094 0.157 0.26 0.244 0.43 0.244 0.087 0 0.175-0.022 0.255-0.070l12.245-7.29v17.757l-16.935-11.266c-0.538-0.429-1.594-0.429-2.096-0.025l-16.969 11.286v-17.752l12.244 7.29c0.080 0.048 0.169 0.070 0.256 0.070 0.17 0 0.336-0.087 0.43-0.244 0.141-0.237 0.063-0.544-0.174-0.686l-12.479-7.436 17.227-10.394zM36.090 31h-34.188l16.656-11.086c0.173-0.138 0.712-0.137 0.919 0.025l16.613 11.061zM6.5 13h25c0.276 0 0.5-0.224 0.5-0.5s-0.224-0.5-0.5-0.5h-25c-0.276 0-0.5 0.224-0.5 0.5s0.224 0.5 0.5 0.5z"></path>
</symbol>
<symbol id="icon-profile-female" viewBox="0 0 36 32">
<title>profile-female</title>
<path d="M22.22 20.726c-0.157-0.024-0.317 0.038-0.425 0.155-0.109 0.116-0.156 0.278-0.126 0.435 0.276 1.45 1.205 3.44 4.057 4.679 0.338 0.146 0.86 0.26 1.522 0.403 2.478 0.536 6.622 1.434 7.64 5.232 0.060 0.223 0.262 0.37 0.483 0.37 0.043 0 0.086-0.006 0.13-0.017 0.267-0.072 0.425-0.346 0.354-0.613-1.177-4.387-5.872-5.404-8.395-5.95-0.584-0.127-1.089-0.236-1.336-0.344-1.714-0.744-2.821-1.848-3.301-3.286 4.762 0.354 6.918-1.543 7.013-1.629 0.118-0.107 0.179-0.266 0.161-0.425s-0.11-0.3-0.249-0.38c-2.748-1.57-2.748-6.995-2.748-9.038 0-5.713-3.848-10.242-8.781-10.313-0.014-0.001-0.121-0.003-0.141-0.003 0 0 0 0-0.001 0-5.005 0.028-9.077 4.562-9.077 10.108 0 2.043 0 7.469-2.748 9.038-0.145 0.083-0.238 0.232-0.251 0.398-0.012 0.166 0.060 0.328 0.191 0.431 0.138 0.107 3.188 2.441 6.941 1.732-0.502 1.378-1.594 2.438-3.258 3.161-0.241 0.105-0.721 0.22-1.277 0.352-2.54 0.604-7.269 1.729-8.453 6.147-0.071 0.268 0.087 0.541 0.354 0.613 0.271 0.067 0.541-0.088 0.613-0.354 1.029-3.844 5.217-4.839 7.718-5.435 0.627-0.149 1.122-0.267 1.444-0.406 2.852-1.239 3.78-3.229 4.057-4.679 0.033-0.173-0.027-0.351-0.159-0.467-0.131-0.117-0.312-0.157-0.482-0.104-2.707 0.852-5.208-0.32-6.301-0.97 2.611-2.186 2.611-7.217 2.611-9.457 0-4.997 3.626-9.083 8.12-9.11 0.005 0 0.102 0.006 0.106 0.006 4.432 0.063 7.774 4.066 7.774 9.312 0 2.241 0 7.283 2.622 9.469-0.903 0.516-2.962 1.351-6.402 0.939z"></path>
</symbol>
</defs>
</svg>
